<?xml version="1.0" encoding="UTF-8" standalone="no"?>
<svg
   xmlns:dc="http://purl.org/dc/elements/1.1/"
   xmlns:cc="http://creativecommons.org/ns#"
   xmlns:rdf="http://www.w3.org/1999/02/22-rdf-syntax-ns#"
   xmlns:svg="http://www.w3.org/2000/svg"
   xmlns="http://www.w3.org/2000/svg"
   version="1.1"
   viewBox="0 0 34 49"
   data-name="Layer 1"
   id="Layer_1">
  <metadata
     id="metadata31">
    <rdf:RDF>
      <cc:Work
         rdf:about="">
        <dc:format>image/svg+xml</dc:format>
        <dc:type
           rdf:resource="http://purl.org/dc/dcmitype/StillImage" />
      </cc:Work>
    </rdf:RDF>
  </metadata>
  <defs
     id="defs18">
    <style
       id="style2">.cls-1{fill:none;}.cls-2{clip-path:url(#clip-path);}.cls-3{fill:url(#linear-gradient);}.cls-4{fill:#00b6bd;}</style>
    <clipPath
       id="clip-path">
      <path
         id="path4"
         d="M19,2.61a6.86,6.86,0,0,1-.27,1.64,4.84,4.84,0,0,1-.59,1.26c-.32.33-.47.56-.83.48a.62.62,0,0,1-.45-.34c-.31-.45-1.65-3.81-1.83-3.95,0,.24,1.05,3.94,1.15,4.91a11.4,11.4,0,0,1-.13,2.18l-.29,1.34c-.21.08-.68-.82-1.1-1.44a16.36,16.36,0,0,1-.87-1.45,5.63,5.63,0,0,0,.12-1.59c0-.69,1-1.46.92-1.69,0-.08-.27.1-.54.28s-.53.36-.55.27-.11-.41-.18-.63a6,6,0,0,0-2.13-2.72,16.17,16.17,0,0,1,1.38,2.52c.32,1.1.46,2.22.17,2.45S11.71,6,11,5.57C9.86,4.89,9.51,4,9.17,4s.76,1.17.92,1.84S7.83,6.05,7.61,6c-.37,0-.45.15-.15.25a11.24,11.24,0,0,0,1.69.34c1.46.2,2.74.16,3.93,1.31a4.93,4.93,0,0,1,1.55,3.22c.12.75-.9.49-2.76-.65a3,3,0,0,1-1.63-2.35c-.14-.33-.32.94-.1,1.43.07.17-.42,0-1-.07a3.53,3.53,0,0,0-1.3-.14c-.4.09,2,.33,3.05,1.26.59.5,2.49,1.9,3.22,2.58a.56.56,0,0,1-.22.82,4.92,4.92,0,0,1-1.79,0,4,4,0,0,1-2.46-1.35,10.26,10.26,0,0,1-1.37-1.89,3.19,3.19,0,0,0,.33,1.53,6.48,6.48,0,0,0,.69,1,25.63,25.63,0,0,0-3-.59c.1.24,1.58.57,2.28,1s3.66,1.92,3.58,2.16c-.19.5-2.57.34-3.39.43s-2.17.25-2.18.53.46.12,1,.07a5.85,5.85,0,0,1,1,0,19.3,19.3,0,0,1,3.66.48,4.14,4.14,0,0,1,2.11,1.3,3.47,3.47,0,0,1,.36,2l-.08,3A94.12,94.12,0,0,0,1,24.43a94.12,94.12,0,0,0,13.62.89l.08,3a3.41,3.41,0,0,1-.36,2,4.14,4.14,0,0,1-2.11,1.31,21.07,21.07,0,0,1-3.66.48,5.82,5.82,0,0,1-1,0c-.54,0-1-.09-1,.07s1.34.42,2.18.52,3.2-.06,3.39.43c.08.25-2.75,1.69-3.58,2.17s-2.18.72-2.28,1a25.63,25.63,0,0,0,3-.59,6,6,0,0,0-.69,1,3.19,3.19,0,0,0-.33,1.53,10.22,10.22,0,0,1,1.37-1.9,4.09,4.09,0,0,1,2.46-1.34,5,5,0,0,1,1.79,0,.57.57,0,0,1,.22.83c-.73.68-2.63,2.08-3.22,2.57-1.09.93-3.45,1.17-3.05,1.27a4,4,0,0,0,1.3-.14c.58-.12,1.07-.24,1-.07-.22.49,0,1.76.1,1.42a3,3,0,0,1,1.63-2.34c1.86-1.14,2.88-1.41,2.76-.66a4.93,4.93,0,0,1-1.55,3.23c-1.19,1.15-2.47,1.11-3.93,1.3a12.69,12.69,0,0,0-1.69.35c-.3.1-.22.29.15.25.22,0,2.63-.46,2.48.21s-1.26,1.84-.92,1.84S9.86,44,11,43.29c.76-.47,1.68-.86,2.05-.56s.15,1.34-.17,2.45a16.17,16.17,0,0,1-1.38,2.52A6,6,0,0,0,13.58,45c.07-.22.13-.43.18-.64s.29.1.55.28.53.36.54.28-1-1-.92-1.69a5.63,5.63,0,0,0-.12-1.59,16.36,16.36,0,0,1,.87-1.45c.42-.63.89-1.52,1.1-1.45l.29,1.35a11.35,11.35,0,0,1,.13,2.17c-.1,1-1.15,4.68-1.15,4.92.18-.15,1.52-3.5,1.83-3.95a.62.62,0,0,1,.45-.34c.36-.08.51.14.83.48a4.69,4.69,0,0,1,.59,1.26A6.86,6.86,0,0,1,19,46.24a15,15,0,0,1,.14,2.32,8,8,0,0,0,.23-4.39c-.44-1.54-1.2-1.81-1.55-2.5s.29-2.84.36-3.23c.13-.64.52-.89.85-.44a42.24,42.24,0,0,1,2.62,4.63,39.19,39.19,0,0,0,1.36,4c0-.65-.6-2.54-.72-3.18a14.84,14.84,0,0,1-.21-1.63A7.65,7.65,0,0,1,23.42,43c.67.61,1.36,1.23,1.45,1.13a53.73,53.73,0,0,1-3.56-4.43,5.26,5.26,0,0,1-.8-1.73c0-.26.82.48,1.15.74.69.53,2,1.49,2,1.1a42.08,42.08,0,0,1-3.24-3.19c-.73-.94-.28-1.26.63-1.41a3,3,0,0,1,2.18.74,13.53,13.53,0,0,1,2.2,1.93,15.88,15.88,0,0,1,1.6,1.78c.29-.11-.62-1.48-1.22-2s-1.14-1.24-.73-1.71c.24-.28,1.7-.23,2.87-.18a6.11,6.11,0,0,0,1.5,0c.09-.24-3.25-1-4.9-1s-3.76-1.52-3.42-2.09,2-.2,4.76.94c.43,0-.81-.8-1.17-1.08,1.13,0,2.94-.89,2.89-1.13a6.07,6.07,0,0,1-4.08.2c-1.33-.4-3.63-1.18-3.63-1.43,0-.72,0-1.67.06-3l.1-1.85a91.67,91.67,0,0,0,13-.88,91.67,91.67,0,0,0-13-.88L20,21.7c-.09-1.3-.06-2.25-.06-3,0-.26,2.3-1,3.63-1.44a6,6,0,0,1,4.08.21c.05-.25-1.76-1.09-2.89-1.13.36-.28,1.6-1.13,1.17-1.08-2.8,1.14-4.42,1.5-4.76.94s1.77-2.08,3.42-2.09,5-.73,4.9-1a6.11,6.11,0,0,0-1.5,0c-1.17.05-2.63.1-2.87-.18-.41-.47.17-1.19.73-1.71s1.51-1.94,1.22-2A15.88,15.88,0,0,1,25.47,11a14,14,0,0,1-2.2,1.93,3,3,0,0,1-2.18.74c-.91-.15-1.36-.47-.63-1.41A42.08,42.08,0,0,1,23.7,9.07c0-.39-1.35.57-2,1.1-.33.26-1.14.79-1.15.53a4.57,4.57,0,0,1,.8-1.52,53.73,53.73,0,0,1,3.56-4.43c-.09-.1-.78.52-1.45,1.13A7.65,7.65,0,0,1,22.1,7a15.23,15.23,0,0,1,.21-1.64c.12-.63.68-2.53.72-3.17a39.19,39.19,0,0,0-1.36,4,43.2,43.2,0,0,1-2.62,4.63c-.33.45-.72.2-.85-.44-.07-.39-.72-2.53-.36-3.23s1.11-1,1.55-2.5A8,8,0,0,0,19.16.3,14.93,14.93,0,0,1,19,2.61"
         class="cls-1" />
    </clipPath>
    <linearGradient
       gradientUnits="userSpaceOnUse"
       gradientTransform="translate(-15508 -19302.53) rotate(-90) scale(48.26)"
       y2="321.71"
       x2="-399.99"
       y1="321.71"
       x1="-400.99"
       id="linear-gradient">
      <stop
         id="stop7"
         stop-color="#00b6be"
         offset="0" />
      <stop
         id="stop9"
         stop-color="#00b6be"
         offset="0.28" />
      <stop
         id="stop11"
         stop-color="#008da6"
         offset="0.52" />
      <stop
         id="stop13"
         stop-color="#005888"
         offset="0.84" />
      <stop
         id="stop15"
         stop-color="#00447c"
         offset="1" />
    </linearGradient>
  </defs>
  <title
     id="title20">Artboard 1</title>
  <g
     id="g24"
     clip-path="url(#clip-path)"
     class="cls-2">
    <rect
       id="rect22"
       height="48.26"
       width="32.17"
       y="0.3"
       x="0.98"
       class="cls-3" />
  </g>
  <path
     id="path26"
     d="M26.34,16a1.33,1.33,0,0,0,2.23-.43,1.35,1.35,0,0,0-1.24-.41,1.33,1.33,0,0,0-1,.84M23.8,10.11a.69.69,0,1,0,.69-.69.69.69,0,0,0-.69.69M6.11,14.48a1.55,1.55,0,0,0,1.13,1.07,1.57,1.57,0,0,0,1.5-.41,1.59,1.59,0,0,0-2.63-.66M7.63,11.8a1.44,1.44,0,0,0-2-1.44,1.45,1.45,0,0,0,.59,1.28,1.42,1.42,0,0,0,1.39.16M9.09,5a.64.64,0,0,0-.63-.64A.64.64,0,0,0,7.82,5a.64.64,0,0,0,.64.63A.63.63,0,0,0,9.09,5M9.2,8.63a1.31,1.31,0,0,0-.53-1.15,1.28,1.28,0,0,0-1.25-.14A1.31,1.31,0,0,0,8,8.49a1.28,1.28,0,0,0,1.25.14m1.22,9.18a1.6,1.6,0,0,0-2.62.75,1.61,1.61,0,0,0,2.62-.75m-.05-5.51a.7.7,0,1,0,.7-.7.7.7,0,0,0-.7.7M12.5,4.87a1.59,1.59,0,0,0-2.05-1.78A1.58,1.58,0,0,0,12.5,4.87m.8,4.88a1.41,1.41,0,0,0-.58-1.27,1.47,1.47,0,0,0-1.4-.17,1.45,1.45,0,0,0,.59,1.28,1.42,1.42,0,0,0,1.39.16m1.32-7.26a1,1,0,0,0-.29-1,1.06,1.06,0,0,0-.69.76,1.09,1.09,0,0,0,.29,1,1.06,1.06,0,0,0,.69-.77m1.06,4.36a1.28,1.28,0,0,0-.29-1.2,1.25,1.25,0,0,0-.87.87,1.24,1.24,0,0,0,.28,1.2,1.26,1.26,0,0,0,.88-.87M18,4.26a1.75,1.75,0,0,0,.07-1.72,1.79,1.79,0,0,0-.38-.48h0a1.81,1.81,0,0,0-1.05-.47,1.81,1.81,0,0,0-.07,1.72A1.77,1.77,0,0,0,18,4.26m1.48,2.33a1.59,1.59,0,0,0-.61,2.65,1.59,1.59,0,0,0,.61-2.65m1-1.66a.64.64,0,0,0-.63.64.63.63,0,0,0,1.26,0,.64.64,0,0,0-.63-.64M21.33,2a1.26,1.26,0,0,0,0-1.25,1.29,1.29,0,0,0-1,.69,1.32,1.32,0,0,0,.05,1.25,1.31,1.31,0,0,0,1-.69m.37,1.28a1.08,1.08,0,0,0-1-.05,1.06,1.06,0,0,0-.59.84,1.06,1.06,0,0,0,1.62-.79m1.07,7.61a1.2,1.2,0,0,0-.79.86,1.23,1.23,0,0,0,.33,1.13A1.24,1.24,0,0,0,23.1,12a1.18,1.18,0,0,0-.33-1.12m1.5-6.67A1.28,1.28,0,0,0,24.46,3a1.27,1.27,0,0,0-1.34,1.71,1.27,1.27,0,0,0,1.15-.48M26,6.85a1.59,1.59,0,0,0-2.61.75A1.6,1.6,0,0,0,26,6.85m0,11.46a.76.76,0,1,0-.76.76.76.76,0,0,0,.76-.76m2.06-6.68a1.2,1.2,0,0,0-2,.56,1.2,1.2,0,0,0,2-.56"
     class="cls-4" />
</svg>
